<svg width="298" height="91" viewBox="0 0 298 91" fill="none" xmlns="http://www.w3.org/2000/svg">
<path d="M42.191 42.2458L58.2276 58.7114C61.459 62.0292 59.1082 67.6003 54.4768 67.6003H38.4532C37.0645 67.6003 35.7328 67.0487 34.7509 66.0668L10.9569 42.2728C8.91216 40.2281 8.91216 36.9129 10.9569 34.8682L34.4018 11.4233C35.3837 10.4414 36.7155 9.88974 38.1041 9.88974H54.3713C59.0179 9.88974 61.362 15.4923 58.1 18.8013L42.2131 34.9169C40.2122 36.9467 40.2024 40.204 42.191 42.2458Z" fill="url(#paint0_linear_527_1651)"/>
<path d="M26.957 65.5162L10.9203 81.9818C7.68894 85.2996 10.0398 90.8707 14.6712 90.8707H30.6948C32.0834 90.8707 33.4152 90.3191 34.3971 89.3372L58.1911 66.2623C60.2358 64.2176 60.2358 60.1833 58.1911 58.1386L34.6151 34.2655C33.6332 33.2836 32.4325 33.1601 31.0438 33.1601H14.7767C10.1301 33.1601 7.3263 38.4611 10.5884 41.7702L26.9348 58.1873C28.9357 60.2171 28.9456 63.4744 26.957 65.5162Z" fill="url(#paint1_linear_527_1651)"/>
<path d="M32.4852 32.2296L49.0018 48.8217C52.2332 52.1396 49.8823 57.7107 45.251 57.7107H29.2274C26.8421 57.7107 25.8461 57.18 24.8642 56.1981L1.36099 32.695C-0.683728 30.6503 -0.313651 27.0233 1.73107 24.9786L25.176 1.53363C26.1579 0.55172 27.4897 8.7738e-05 28.8783 8.7738e-05H45.1455C49.7921 8.7738e-05 52.1362 5.6026 48.8741 8.91166L32.9873 25.0273C30.9864 27.057 30.4966 30.1878 32.4852 32.2296Z" fill="url(#paint2_linear_527_1651)"/>
<path d="M18.1777 57.6726L1.60044 74.1182C-1.73989 77.4321 0.690201 82.9965 5.47773 82.9965H22.0415C23.477 82.9965 24.8536 82.4455 25.8687 81.4648L50.4648 57.6996C52.5785 55.6573 52.5785 52.3462 50.4648 50.3039L26.7807 26.4149C25.7657 25.4341 24.0368 23.7437 21.3986 23.4506H7.76199C6.49731 23.4506 5.18921 23.2285 3.98696 23.6209C0.796215 24.6624 -1.34593 29.3306 1.14217 32.482L18.5838 49.8845C20.6522 51.9118 20.2333 55.6332 18.1777 57.6726Z" fill="url(#paint3_linear_527_1651)"/>
<path d="M97.3666 64.8852C94.9366 64.8852 92.7123 64.5914 90.6935 64.0038C88.7121 63.4162 86.9364 62.5531 85.3662 61.4146C83.8335 60.276 82.4502 58.8988 81.2166 57.2828L86.4878 51.3881C88.3196 53.8855 90.1327 55.5933 91.9272 56.5115C93.759 57.393 95.7404 57.8337 97.8713 57.8337C99.0302 57.8337 100.058 57.6868 100.956 57.393C101.89 57.0624 102.619 56.6033 103.143 56.0157C103.666 55.4281 103.928 54.7303 103.928 53.9223C103.928 53.3346 103.797 52.8021 103.535 52.3247C103.273 51.8105 102.9 51.3698 102.414 51.0025C101.928 50.5985 101.348 50.2496 100.675 49.9558C100.002 49.6252 99.2545 49.3498 98.4321 49.1294C97.6096 48.8723 96.7124 48.6703 95.7404 48.5234C93.6469 48.046 91.815 47.4767 90.2449 46.8156C88.6747 46.1178 87.3663 45.2731 86.3195 44.2815C85.2728 43.2531 84.4877 42.0962 83.9643 40.8108C83.4783 39.5254 83.2353 38.0746 83.2353 36.4587C83.2353 34.8059 83.6092 33.2818 84.3568 31.8862C85.1045 30.4538 86.1326 29.2235 87.4411 28.1951C88.7869 27.1668 90.3197 26.3771 92.0393 25.8262C93.7964 25.2753 95.6469 24.9999 97.5909 24.9999C99.9835 24.9999 102.077 25.2753 103.872 25.8262C105.666 26.3404 107.217 27.0933 108.526 28.0849C109.872 29.0766 110.993 30.2885 111.89 31.7209L106.563 36.7892C105.778 35.7608 104.918 34.8978 103.984 34.2C103.086 33.5021 102.096 32.988 101.012 32.6574C99.9648 32.2902 98.8807 32.1065 97.7592 32.1065C96.5255 32.1065 95.46 32.2718 94.5628 32.6023C93.6656 32.8962 92.9553 33.3369 92.4319 33.9245C91.9459 34.5121 91.7029 35.2283 91.7029 36.073C91.7029 36.7341 91.8711 37.3217 92.2076 37.8359C92.544 38.3501 93.03 38.8092 93.6656 39.2132C94.3011 39.5804 95.0675 39.911 95.9647 40.2048C96.8619 40.4986 97.8526 40.7557 98.9368 40.9761C100.993 41.3801 102.843 41.9126 104.488 42.5737C106.133 43.2348 107.535 44.0428 108.694 44.9977C109.89 45.9158 110.806 47.0176 111.442 48.3031C112.077 49.5518 112.395 50.9658 112.395 52.545C112.395 55.1526 111.76 57.3746 110.489 59.2109C109.217 61.0473 107.46 62.4613 105.217 63.4529C102.974 64.4078 100.357 64.8852 97.3666 64.8852Z" fill="url(#paint4_linear_527_1651)"/>
<path d="M137.397 64.8852C134.519 64.8852 131.865 64.3894 129.435 63.3978C127.005 62.4062 124.874 61.0289 123.042 59.266C121.247 57.4664 119.864 55.3546 118.892 52.9306C117.92 50.4699 117.434 47.8073 117.434 44.9426C117.434 42.0411 117.92 39.3968 118.892 37.0096C119.864 34.5856 121.247 32.4738 123.042 30.6742C124.874 28.8746 127.005 27.4789 129.435 26.4873C131.865 25.4957 134.519 24.9999 137.397 24.9999C140.313 24.9999 142.968 25.4957 145.36 26.4873C147.79 27.4789 149.903 28.8746 151.697 30.6742C153.529 32.4738 154.931 34.5856 155.903 37.0096C156.875 39.4335 157.361 42.0779 157.361 44.9426C157.361 47.8073 156.875 50.4516 155.903 52.8756C154.931 55.2995 153.529 57.4113 151.697 59.2109C149.903 61.0106 147.79 62.4062 145.36 63.3978C142.968 64.3894 140.313 64.8852 137.397 64.8852ZM137.397 57.0624C139.042 57.0624 140.556 56.7686 141.94 56.181C143.36 55.5933 144.575 54.7486 145.585 53.6468C146.594 52.545 147.379 51.2596 147.94 49.7905C148.538 48.3214 148.837 46.7054 148.837 44.9426C148.837 43.1797 148.538 41.5637 147.94 40.0946C147.379 38.6255 146.594 37.3585 145.585 36.2934C144.575 35.1916 143.36 34.3469 141.94 33.7592C140.556 33.1349 139.042 32.8227 137.397 32.8227C135.753 32.8227 134.238 33.1349 132.855 33.7592C131.472 34.3469 130.257 35.1916 129.21 36.2934C128.164 37.3585 127.36 38.6255 126.799 40.0946C126.276 41.5637 126.014 43.1797 126.014 44.9426C126.014 46.7054 126.276 48.3214 126.799 49.7905C127.36 51.2596 128.164 52.545 129.21 53.6468C130.257 54.7486 131.472 55.5933 132.855 56.181C134.238 56.7686 135.753 57.0624 137.397 57.0624Z" fill="url(#paint5_linear_527_1651)"/>
<path d="M182.189 64.8852C179.311 64.8852 176.656 64.4078 174.226 63.4529C171.834 62.4613 169.74 61.084 167.946 59.3211C166.189 57.5215 164.824 55.4097 163.852 52.9857C162.88 50.525 162.394 47.844 162.394 44.9426C162.394 42.1146 162.899 39.507 163.908 37.1197C164.917 34.6958 166.338 32.6023 168.17 30.8394C170.002 29.0398 172.151 27.6442 174.619 26.6526C177.086 25.661 179.759 25.1652 182.638 25.1652C184.507 25.1652 186.339 25.4222 188.133 25.9364C189.965 26.4139 191.629 27.13 193.124 28.0849C194.657 29.0398 195.965 30.1784 197.049 31.5005L191.778 37.2299C190.881 36.3485 189.946 35.5956 188.974 34.9712C188.04 34.3101 187.03 33.8143 185.946 33.4838C184.899 33.1165 183.778 32.9329 182.582 32.9329C180.974 32.9329 179.46 33.2267 178.039 33.8143C176.656 34.402 175.441 35.2283 174.394 36.2934C173.348 37.3217 172.507 38.5888 171.871 40.0946C171.273 41.5637 170.974 43.198 170.974 44.9977C170.974 46.834 171.273 48.5051 171.871 50.0109C172.469 51.4799 173.31 52.747 174.394 53.8121C175.479 54.8405 176.768 55.6484 178.264 56.2361C179.797 56.787 181.479 57.0624 183.311 57.0624C184.507 57.0624 185.666 56.8972 186.787 56.5666C187.909 56.2361 188.937 55.777 189.872 55.1894C190.844 54.6017 191.703 53.9223 192.451 53.151L196.545 59.5966C195.647 60.5882 194.433 61.488 192.9 62.296C191.404 63.104 189.722 63.7467 187.853 64.2242C185.984 64.6649 184.096 64.8852 182.189 64.8852Z" fill="url(#paint6_linear_527_1651)"/>
<path d="M203.636 64.3343V25.7711H212.047V56.8972H229.824V64.3343H203.636Z" fill="url(#paint7_linear_527_1651)"/>
<path d="M237.643 64.3343V25.7711H246.055V56.8972H263.831V64.3343H237.643Z" fill="url(#paint8_linear_527_1651)"/>
<path d="M275.177 64.3343V45.1078L275.569 47.8073L259.7 25.7711H269.401L281.514 42.8491L277.7 42.6839L288.635 25.7711H298L282.803 48.4132L283.644 44.6671V64.3343H275.177Z" fill="url(#paint9_linear_527_1651)"/>
<defs>
<linearGradient id="paint0_linear_527_1651" x1="11.4353" y1="38.745" x2="59.6874" y2="13.4385" gradientUnits="userSpaceOnUse">
<stop stop-color="#E02666"/>
<stop offset="0.418893" stop-color="#E02666" stop-opacity="0.55"/>
<stop offset="0.69315" stop-color="#E02666" stop-opacity="0.3"/>
<stop offset="0.958333" stop-color="#E02666" stop-opacity="0"/>
</linearGradient>
<linearGradient id="paint1_linear_527_1651" x1="59.6885" y1="62.0503" x2="11.6151" y2="87.9178" gradientUnits="userSpaceOnUse">
<stop stop-color="#9657F5"/>
<stop offset="0.354901" stop-color="#9657F5" stop-opacity="0.61"/>
<stop offset="0.744792" stop-color="#CA3591" stop-opacity="0.199034"/>
<stop offset="1" stop-color="#E02666" stop-opacity="0.02"/>
</linearGradient>
<linearGradient id="paint2_linear_527_1651" x1="0.197478" y1="29.4953" x2="50.4615" y2="3.02524" gradientUnits="userSpaceOnUse">
<stop offset="0.129093" stop-color="#E02666"/>
<stop offset="0.640625" stop-color="#B53CB7" stop-opacity="0.37"/>
<stop offset="0.953125" stop-color="#8C77DE" stop-opacity="0"/>
</linearGradient>
<linearGradient id="paint3_linear_527_1651" x1="52.0501" y1="52.8374" x2="0.868658" y2="83.2093" gradientUnits="userSpaceOnUse">
<stop stop-color="#E02666"/>
<stop offset="0.353046" stop-color="#E52EB6" stop-opacity="0.67"/>
<stop offset="0.493753" stop-color="#E731CF" stop-opacity="0.51"/>
<stop offset="0.6874" stop-color="#E0276D" stop-opacity="0.39"/>
<stop offset="0.786458" stop-color="#E02666" stop-opacity="0.33"/>
<stop offset="0.979167" stop-color="#E02666" stop-opacity="0"/>
</linearGradient>
<linearGradient id="paint4_linear_527_1651" x1="81.2166" y1="44.9426" x2="298" y2="44.9426" gradientUnits="userSpaceOnUse">
<stop stop-color="#E731CF"/>
<stop offset="0.507916" stop-color="#956DDA"/>
<stop offset="1" stop-color="#38B6E6"/>
</linearGradient>
<linearGradient id="paint5_linear_527_1651" x1="81.2166" y1="44.9426" x2="298" y2="44.9426" gradientUnits="userSpaceOnUse">
<stop stop-color="#E731CF"/>
<stop offset="0.507916" stop-color="#956DDA"/>
<stop offset="1" stop-color="#38B6E6"/>
</linearGradient>
<linearGradient id="paint6_linear_527_1651" x1="81.2166" y1="44.9426" x2="298" y2="44.9426" gradientUnits="userSpaceOnUse">
<stop stop-color="#E731CF"/>
<stop offset="0.507916" stop-color="#956DDA"/>
<stop offset="1" stop-color="#38B6E6"/>
</linearGradient>
<linearGradient id="paint7_linear_527_1651" x1="81.2166" y1="44.9426" x2="298" y2="44.9426" gradientUnits="userSpaceOnUse">
<stop stop-color="#E731CF"/>
<stop offset="0.507916" stop-color="#956DDA"/>
<stop offset="1" stop-color="#38B6E6"/>
</linearGradient>
<linearGradient id="paint8_linear_527_1651" x1="81.2166" y1="44.9426" x2="298" y2="44.9426" gradientUnits="userSpaceOnUse">
<stop stop-color="#E731CF"/>
<stop offset="0.507916" stop-color="#956DDA"/>
<stop offset="1" stop-color="#38B6E6"/>
</linearGradient>
<linearGradient id="paint9_linear_527_1651" x1="81.2166" y1="44.9426" x2="298" y2="44.9426" gradientUnits="userSpaceOnUse">
<stop stop-color="#E731CF"/>
<stop offset="0.507916" stop-color="#956DDA"/>
<stop offset="1" stop-color="#38B6E6"/>
</linearGradient>
</defs>
</svg>
