<svg xmlns="http://www.w3.org/2000/svg" viewBox="0 0 500 500"><style>.st0,.st2{opacity:.1}.st2,.st3{fill:#e0e0e0}.st4{fill:#f5f5f5}.st7{fill:#263238}.st8{fill:#455a64}.st9{fill:#7879e8}.st10{fill:#fff}.st13{fill:#ffbe9d}.st14{fill:#eb996e}</style><g id="Background_Complete"><path d="M125.8 289.3s-11 3.1-1.4 26.7c9.6 23.6 16.6 35.5 16.6 35.5s1.6 5.4-2.9 5.9c-4.5.4-14.1-1.9-16.5 3.3-2.5 5.4 1.1 11.1 9 16.4 7.9 5.3 24.7 17.7 26.2 18.8 1.5 1.1 2.9 3.7-.2 4.5-3 .8-25.1 1.2-24.3 11.7.8 10.5 25.2 21.8 27.8 23 2.6 1.3 3.2 2.5 2.8 4-.4 1.5-7.8.9-14.1 1.3s-13.5 1.9-12.5 7.9 14.8 19.6 50.7 26.2l16.8 2 10.4-13.5c20.5-30.2 20.5-49.6 17-54.5-3.6-4.9-9.7-.9-14.4 3.3-4.7 4.2-9.5 9.9-10.8 9.1-1.3-.8-1.8-2-.8-4.8.9-2.8 10-28 3.2-36-6.9-7.9-22.7 7.5-25.4 9.1-2.7 1.6-3.5-1.2-3.3-3 .3-1.9 3.3-22.5 5-31.8 1.7-9.3.3-15.9-5.4-17.9-5.4-2-10.5 6.5-14 9.4-3.5 2.9-6.2-2.1-6.2-2.1s-3.5-13.4-13.5-36.8-20.1-17.6-20.1-17.6" fill="#ebebeb"/><path class="st2" d="M201.8 473.5c-7.3-17.2-17.2-41.1-28-67.5s-20.7-50.3-27.9-67.6c-3.6-8.6-6.5-15.6-8.6-20.4-1-2.4-1.8-4.3-2.3-5.6-.3-.6-.4-1.1-.6-1.5-.1-.3-.2-.5-.2-.5s.1.2.2.5c.2.3.4.8.6 1.4.6 1.3 1.4 3.1 2.4 5.5 2.1 4.8 5.1 11.8 8.7 20.4 7.3 17.2 17.2 41.1 28 67.5s20.7 50.3 27.9 67.6"/><path class="st2" d="M134.9 364.5s.4.1 1.2.4c.7.3 1.8.8 3 1.4 2.6 1.2 6 2.9 9.8 4.9 3.7 2 7.1 3.7 9.7 5.1 1.2.6 2.1 1.1 2.9 1.5.7.4 1.1.6 1.1.6s-.4-.1-1.2-.4c-.7-.3-1.8-.8-3-1.4-2.5-1.2-6-3-9.8-5-3.7-1.9-7.1-3.7-9.7-5-1.2-.6-2.1-1.1-3-1.5-.6-.4-1-.6-1-.6zm29 13c-.1-.1 3.1-7.4 7.3-16.4 4.2-9 7.6-16.2 7.8-16.1.1.1-3.1 7.4-7.3 16.4-4.1 8.9-7.6 16.1-7.8 16.1zm14.8 41.3s.2-.4.8-1c.6-.7 1.3-1.6 2.2-2.6 1.9-2.2 4.5-5.2 7.2-8.6 2.7-3.4 5.1-6.6 6.8-8.9.8-1.1 1.5-2 2-2.7.5-.6.8-1 .8-1s-.2.4-.6 1.1c-.4.7-1.1 1.7-1.9 2.8-1.6 2.4-3.9 5.6-6.7 9-2.7 3.4-5.4 6.4-7.3 8.5-1 1-1.8 1.9-2.4 2.4-.5.7-.8 1-.9 1zm-28.8-6s.4 0 1.2.1c.7.1 1.8.3 3.1.5 2.6.5 6.2 1.1 10.2 1.9 4 .8 7.6 1.5 10.2 2.1 1.3.3 2.3.5 3.1.7.7.2 1.1.3 1.1.3s-.4 0-1.2-.1c-.7-.1-1.8-.3-3.1-.5-2.6-.5-6.2-1.1-10.2-1.9-4-.8-7.6-1.5-10.2-2.1-1.3-.3-2.3-.5-3.1-.7-.7-.1-1.1-.3-1.1-.3zm8.5 38.1s.5 0 1.5.2c1.1.2 2.4.4 4 .6 3.4.6 8 1.4 13.1 2.3 5.1.9 9.7 1.8 13 2.5 1.6.3 2.9.6 3.9.8.9.2 1.4.3 1.4.4 0 0-.5 0-1.5-.2-1.1-.2-2.4-.4-4-.6-3.4-.6-8-1.4-13.1-2.3-5.1-.9-9.7-1.8-13-2.5-1.6-.3-2.9-.6-3.9-.8-.9-.2-1.5-.3-1.4-.4z"/><path class="st3" d="M194.5 457.3s.3-.5.9-1.3c.7-.9 1.6-2 2.7-3.4 2.3-2.8 5.4-6.8 8.8-11.2 3.4-4.4 6.3-8.5 8.4-11.5 1-1.4 1.8-2.6 2.5-3.5.6-.8.9-1.3 1-1.3 0 0-.2.5-.8 1.4-.5.9-1.3 2.1-2.3 3.6-2 3-4.9 7.2-8.3 11.6-3.4 4.4-6.5 8.3-8.9 11.1-1.2 1.4-2.2 2.5-2.8 3.2-.8.9-1.2 1.3-1.2 1.3z"/><g class="st0"><path class="st4" d="M336 473.4c-23.9-15.3-30.3-45.2-30.5-72.3 0-4.5-.7-9.3 1.3-13.3s6.9-7 11-5.2c3.4 1.4 5 5.3 7 8.5 2.7 4.2 6.5 7.6 11 9.7 2.9 1.4 6.5 2.2 9.3.5 3.8-2.3 4.1-7.7 3.9-12.2-.4-8.4-.8-16.8-1.1-25.1-.2-4.5-.4-9.1.8-13.4 1.2-4.3 4.2-8.4 8.4-9.8 4.2-1.4 9.6.9 10.7 5.3.4 1.8.1 3.7.3 5.6.2 1.9 1.1 3.9 2.9 4.3 1.8.5 3.6-.9 4.9-2.3 4.5-4.7 7.4-10.7 10.1-16.6 2.7-5.9 5.3-12 9.4-17.1 4-5.1 9.7-9.3 16.1-9.9 6.4-.6 13.4 3.1 15.3 9.3 1.9 6.3-1.6 12.8-5.4 18.1-5.7 7.8-12.5 14.9-20.1 20.7-1.4 1.1-2.9 2.2-3.3 3.9-.9 3 2.1 5.9 5.1 6.8 3.4 1 7 .5 10.5.8 3.5.3 7.4 1.7 8.8 4.9 2 4.5-1.6 9.5-5.3 12.8-7.3 6.6-15.8 11.9-24.9 15.7-3.3 1.3-6.7 2.5-9.3 5-2.6 2.4-4 6.5-2.3 9.6 1.7 3.1 5.9 4 9.4 3.2 3.4-.8 6.5-2.8 9.7-4.2 6.1-2.6 14.1-2.5 18.2 2.7 2.7 3.4 3.2 8.3 2 12.5-1.1 4.2-3.7 7.9-6.4 11.4-9.4 12-21.8 21.9-35.9 27.4-14 5.5-27.2 7.4-41.6 2.7"/></g><path class="st2" d="M342.3 456.2c3.4-13.8 8.5-28.7 14.3-44 1.5-3.8 2.9-7.6 4.3-11.3 1.4-3.7 2.9-7.4 4.5-10.9 3.2-7.1 6.8-13.6 10.4-19.7 3.6-6.1 7.3-11.8 10.7-17 3.5-5.3 6.8-10.1 10-14.4 6.4-8.6 12.4-14.9 16.7-19.1 2.1-2.1 3.9-3.7 5-4.7.6-.5 1-.9 1.3-1.2.3-.3.5-.4.5-.4s-.1.2-.4.4c-.3.3-.7.7-1.3 1.2-1.1 1.1-2.8 2.7-4.9 4.8-4.2 4.2-10.1 10.6-16.4 19.2-3.2 4.3-6.5 9.2-9.9 14.4-3.4 5.3-7.1 11-10.6 17.1-3.6 6.1-7.2 12.6-10.3 19.7-1.6 3.5-3 7.2-4.4 10.9-1.4 3.7-2.9 7.5-4.3 11.3-5.8 15.3-10.8 30.1-14.3 43.9"/><path class="st2" d="M365.6 389.9c-.1 0-.2-.7-.5-1.9s-.6-3-1-5.3c-.8-4.5-1.7-10.6-2.7-17.5-1-6.8-2-13-2.9-17.4-.4-2.2-.8-4-1.1-5.2-.3-1.2-.4-1.9-.3-1.9.1 0 .3.6.6 1.9.4 1.2.8 3 1.3 5.2 1 4.4 2.1 10.6 3.1 17.4.9 6.7 1.8 12.8 2.5 17.5.3 2.1.6 3.9.8 5.3.2 1.1.3 1.8.2 1.9zm57.4-13.1c0 .1-.8.2-2.3.4-1.5.2-3.6.5-6.3.9-5.3.8-12.5 2.1-20.4 3.9-7.9 1.8-15 3.8-20.1 5.4-2.6.8-4.6 1.4-6 1.9-1.4.5-2.2.7-2.2.6 0-.1.7-.4 2.1-.9 1.4-.6 3.4-1.3 6-2.2 5.1-1.7 12.2-3.8 20.1-5.6 8-1.8 15.2-3.1 20.5-3.7 2.7-.3 4.8-.5 6.3-.6 1.5-.2 2.3-.2 2.3-.1z"/><path class="st3" d="M343 455.1s-.2-.2-.4-.7c-.3-.6-.6-1.2-1.1-2.1-.9-1.8-2.2-4.4-3.7-7.7-3-6.5-7-15.6-11.2-25.8-4.2-10.1-8-19.3-10.9-25.9-1.4-3.2-2.6-5.8-3.5-7.8-.4-.8-.7-1.5-.9-2.1-.2-.5-.3-.8-.3-.8s.2.2.4.7c.3.6.6 1.2 1.1 2.1.9 1.8 2.2 4.4 3.7 7.7 3 6.5 7 15.6 11.2 25.8 4.2 10.1 8 19.3 10.9 25.8 1.4 3.2 2.6 5.8 3.5 7.8.4.8.7 1.5.9 2.1l.3.9z"/><path class="st2" d="M418.8 427.3s-.3.1-.8.3c-.6.2-1.3.5-2.2.8-2 .7-4.8 1.8-8.1 3-6.9 2.5-16.3 6.1-26.7 10.1-10.4 4-19.9 7.5-26.8 9.9-3.5 1.2-6.3 2.1-8.2 2.7-.9.3-1.6.5-2.3.7-.5.1-.8.2-.8.2s.3-.1.7-.3c.6-.2 1.3-.5 2.2-.8 2-.7 4.8-1.8 8.1-3 6.9-2.5 16.3-6.1 26.7-10.1 10.4-4 19.9-7.5 26.8-9.9 3.5-1.2 6.3-2.1 8.2-2.7.9-.3 1.6-.5 2.3-.7.6-.2.9-.2.9-.2z"/><g class="st0"><path class="st3" d="M393.1 98.3l-17.3 51.5c-1.4 4.2.5 8.8 4.5 10.7 4.2 2 9.3.4 11.5-3.7l26.2-48.2c2-3.6.3-8.2-3.5-9.7l-12.3-4.8c-3.7-1.5-7.8.4-9.1 4.2zm-11 95.8c-4.8 5.5-13.1 6.2-18.7 1.4-5.5-4.8-6.2-13.1-1.4-18.7 4.8-5.5 13.1-6.2 18.7-1.4 5.5 4.8 6.2 13.2 1.4 18.7z"/></g><g class="st0"><path class="st3" d="M421.5 189.4l6.3 18.6c.5 1.5 2.1 2.4 3.6 2.1 1.7-.3 2.8-1.9 2.5-3.6l-3-19.6c-.2-1.5-1.7-2.4-3.1-2l-4.6 1.3c-1.3.4-2.1 1.9-1.7 3.2zm17.8 30c-.2 2.6-2.4 4.6-5.1 4.5-2.6-.2-4.6-2.4-4.5-5.1.2-2.6 2.4-4.6 5.1-4.5 2.7.2 4.7 2.5 4.5 5.1z"/></g></g><path class="st7" d="M475.5 477.3c0 .1-101 .3-225.5.3-124.6 0-225.5-.1-225.5-.3s101-.3 225.5-.3 225.5.2 225.5.3z" id="Floor"/><g id="Character"><path class="st7" d="M303.8 164.2c-1.3 4.8-2.6 9.7-2.3 14.7.3 5 2.6 10.1 7 12.5 5 2.7 12.6 2.3 14.7 7.6 1.4 3.6-.9 8.2 1.1 11.5 2.9 4.7 10.7 2 15.2 5.2 3.5 2.4 4 7.4 3.6 11.7-.4 4.3-1.2 8.9.9 12.6 2.5 4.3 8.2 6 10.5 10.3 2.9 5.4-.6 11.9-4.4 16.6-3.9 4.7-8.5 9.7-8.2 15.8l-71.8 2.2-4.5-114.3 38.2-6.4z"/><path class="st8" d="M310.2 214.4c-.1 0-.1-.5-.5-1.5-.4-.9-1.2-2.1-2.5-3.3-1.3-1.2-3.2-2.3-5.4-3.2-2.2-.9-4.7-1.8-7.1-3.2-1.2-.7-2.3-1.6-3.1-2.7-.8-1-1.5-2.2-1.9-3.3-.8-2.3-.9-4.5-.8-6.3.1-1.8.3-3.3.5-4.3.1-.5.2-.9.2-1.1.1-.3.1-.4.1-.4s0 .6-.2 1.6c-.1 1-.3 2.5-.3 4.2 0 1.8.1 4 .9 6.2.4 1.1 1 2.2 1.8 3.2s1.8 1.8 3 2.5c2.3 1.4 4.8 2.3 7 3.2 2.2.9 4.1 2.1 5.4 3.3 1.4 1.2 2.1 2.6 2.5 3.5.2.5.3.9.3 1.1.1.4.1.5.1.5z"/><path class="st7" d="M200 432.6l-8.3 44.7h164s-5.6-26.5-29-55.8L200 432.6z"/><path class="st9" d="M197.6 389.8l-5.9-85.5 9.7-87.6 53.2-7.4 38.9 4.3 26.6 89.9 7.2 80.1s3.8 12.6 8.2 27.4c2.4 8.2-.9 17.1-8.2 21.5-6.3 3.8-15.8 6.8-29.5 5.4-31.5-3.3-67.3-9-84.6-6.2s-19.7-1.2-19.7-1.2-5.5-5.3-3.8-11.5c1.8-6.3 7.9-29.2 7.9-29.2z"/><path class="st10" d="M325.6 383l-.4.4c-.4.3-.8.6-1.3 1-1.2.9-2.9 2.1-4.9 3.6-4.2 3.1-9.8 7.5-16 12.4-6.2 4.9-11.8 9.3-15.9 12.5-2.1 1.6-3.7 2.8-4.9 3.7-.5.4-1 .7-1.4 1-.3.2-.5.3-.5.3s.1-.2.4-.4c.3-.3.8-.6 1.3-1.1 1.2-.9 2.8-2.2 4.8-3.8 4.1-3.3 9.7-7.7 15.8-12.6 6.2-4.9 11.9-9.2 16.1-12.2 2.1-1.5 3.8-2.7 5-3.5.6-.4 1-.7 1.4-.9.4-.3.5-.4.5-.4z"/><path class="st7" d="M282.7 240.4c-.1.1-1.3-1.4-2.7-3.2-1.4-1.9-2.4-3.5-2.3-3.5.1-.1 1.3 1.4 2.7 3.2 1.3 1.8 2.4 3.4 2.3 3.5zm6.4-13.2c-.1.1-1.3-1.7-3.3-3.2-2.1-1.5-4.1-2.1-4.1-2.3 0-.1 2.2.2 4.4 1.8 2.1 1.7 3.1 3.7 3 3.7zm-50.4 11.5c.1.1-1.3 1.6-2.1 4s-.6 4.4-.8 4.4c-.1 0-.6-2.1.3-4.6.9-2.4 2.5-3.9 2.6-3.8zm-20.3-17.5c0 .2-2.3.2-5.1.6-2.8.4-5 1-5.1.9 0-.1 2.1-1 5-1.4 2.9-.4 5.2-.2 5.2-.1z"/><path d="M198.1 382.2c13.7-5.7 23-18.9 28.5-32.7 5.6-13.8 8.2-28.6 13.2-42.5 1.5-4.1 4-8.8 8.4-8.9 3.6-.1 6.3 3 8.3 5.9 9.6 13.8 15.7 29.6 23.1 44.7 7.4 15.1 16.6 30 30.5 39.4 2.6 1.7 5.4 3.3 8.5 3.5 3.1.2 6.5-1.4 7.5-4.4.4-1.2.4-2.5.4-3.8-.1-7.5-.3-15.1-.4-22.6-.1-8.2-.3-16.5-3.4-24.1-4.5-11-14.4-18.7-23.5-26.3-12-10.1-23.3-21-32.4-33.8-3.2-4.5-6.2-9.4-10.6-12.8-4.4-3.4-10.6-5.2-15.6-2.7-5.6 2.7-7.7 9.4-9.3 15.4-9.1 34-19.3 67.8-30.6 101.1"/><path class="st9" d="M196.8 377.4c10.1-.9 17.8-12 20.5-21.7l22.1-77.9-33.7-22.6-13.5 44.8 9.3-83.4s-30.9 7.8-38.2 45.3c-6.1 31.8-8.3 61.4-6.8 73 0 .1.2 45.9 40.3 42.5zm57.5-93s15.3 38.8 30.5 61.3c14.5 21.5 38.9 43.2 54.6 40.6 15.7-2.6 23.9-42.6 23.9-57.6s-19.2-76.5-19.2-76.5-3.8-34.6-37.3-38.7l-23.5-1.1 35.7 88.5-15-17.9s1.9-4.8-.5-10.1-18.3-18.8-18.3-18.8l-30.9 30.3z"/><path class="st7" d="M193 288.9s-.2-.4-.4-1.2c-.2-.8-.5-2-.9-3.4-.8-2.8-2.2-6.7-4.1-10.7-1.9-4.1-4.1-7.5-5.8-9.9-.8-1.2-1.5-2.2-2-2.8-.5-.7-.8-1-.7-1.1l.9.9c.5.6 1.3 1.6 2.2 2.7 1.8 2.4 4 5.8 6 9.9 1.9 4.1 3.2 8 4 10.9.4 1.4.6 2.6.8 3.4 0 .9.1 1.3 0 1.3zm109.5 47.6s-.1-.2-.2-.5c-.2-.4-.3-.9-.6-1.5-.2-.6-.5-1.4-.8-2.4-.3-.9-.6-2-.9-3.2-.3-1.2-.6-2.5-.9-4-.3-1.4-.5-3-.8-4.6-.4-3.3-.7-6.9-.6-10.6.1-3.8.5-7.4 1-10.6.3-1.6.6-3.2.9-4.6.3-1.4.7-2.7 1-3.9.3-1.2.7-2.2 1-3.2.3-.9.6-1.7.9-2.4.3-.6.5-1.1.6-1.5.1-.3.2-.5.2-.5s0 .2-.2.5c-.1.4-.3.9-.5 1.5s-.5 1.4-.8 2.4c-.3.9-.7 2-1 3.2-.3 1.2-.7 2.5-1 3.9-.3 1.4-.6 2.9-.9 4.5-.5 3.2-.9 6.8-.9 10.6-.1 3.8.2 7.3.6 10.6.2 1.6.4 3.2.7 4.6.2 1.4.5 2.7.8 3.9.3 1.2.6 2.3.8 3.2.2.9.5 1.8.7 2.4.2.6.3 1.1.5 1.5.3.5.4.7.4.7zm41.2 9.2v-.5c0-.4.1-.8.1-1.3.1-.6.1-1.3.1-2.1s.1-1.8 0-2.8c0-.5-.1-1.1-.1-1.6 0-.6-.1-1.2-.2-1.8-.1-1.2-.4-2.5-.7-3.9-.6-2.7-1.5-5.6-2.8-8.5-1.3-2.9-2.9-5.5-4.5-7.8-.8-1.1-1.6-2.2-2.5-3.1-.4-.5-.8-.9-1.2-1.3l-1.2-1.2c-.7-.8-1.5-1.3-2.1-1.9-.6-.6-1.2-1-1.7-1.3-.4-.3-.8-.6-1.1-.8-.2-.2-.4-.3-.4-.3l.4.2c.3.2.7.5 1.1.7.5.3 1.1.7 1.7 1.3.6.5 1.4 1.1 2.2 1.8.4.4.8.7 1.2 1.1.4.4.8.9 1.2 1.3.9.9 1.7 2 2.5 3.1 1.6 2.3 3.3 4.9 4.6 7.8 1.3 3 2.2 5.9 2.8 8.6.3 1.4.5 2.7.6 3.9.1.6.2 1.2.2 1.8 0 .6 0 1.1.1 1.7.1 1.1 0 2 0 2.8 0 .8-.1 1.6-.2 2.1s-.1 1-.2 1.3c.2.5.1.7.1.7z"/><path class="st7" d="M344.7 318.4c-.1 0-.9-.9-2.2-2.5-1.3-1.5-3.2-3.7-5.5-5.6-2.3-2-4.8-3.3-6.8-3.7-2-.4-3.2-.1-3.2-.2 0 0 .3-.1.9-.2.3-.1.6-.1 1-.1h.7c.2 0 .5.1.7.1 2.1.3 4.7 1.6 7.1 3.6 2.4 2 4.2 4.2 5.5 5.8.6.8 1.1 1.5 1.4 1.9.2.6.4.8.4.9z"/><path class="st7" d="M351.7 311.2c-.1.2-3.7-2-8.7-3-5-1-9.1-.2-9.2-.4 0-.1 1-.3 2.7-.5 1.7-.1 4-.1 6.6.4 2.5.5 4.7 1.4 6.2 2.1 1.6.8 2.4 1.4 2.4 1.4zm-21.8-85.9s-.2.1-.5.3c-.4.2-.9.4-1.4.7-.3.2-.7.3-1 .5-.4.2-.8.5-1.2.7-.8.5-1.8 1.1-2.8 1.9-.5.4-1 .8-1.6 1.2-.5.4-1 1-1.6 1.5-1.1 1-2.1 2.2-3.2 3.4-2.1 2.6-4.1 5.7-5.8 9.1-3.4 6.9-5.1 13.7-6 18.7-.3 1.2-.4 2.4-.6 3.4-.2 1-.3 1.8-.4 2.5-.1.7-.2 1.2-.2 1.6-.1.4-.1.6-.1.6v-.6c0-.4.1-1 .1-1.6.1-.7.1-1.6.3-2.6.1-1 .3-2.1.5-3.4.9-5 2.5-11.9 5.9-18.8 1.7-3.5 3.8-6.6 5.9-9.2 1.1-1.2 2.1-2.5 3.3-3.4.6-.5 1.1-1 1.6-1.4.6-.4 1.1-.8 1.6-1.2 1-.8 2-1.3 2.9-1.9.4-.3.8-.5 1.2-.7.4-.2.7-.3 1.1-.5.6-.3 1.1-.5 1.5-.7.3-.1.5-.1.5-.1zm-146.3 89.4s0-.1.1-.3c.1-.2.2-.5.3-.8.3-.7.6-1.8 1.1-3.2 1-2.8 2.4-6.9 4.2-12.1 3.7-10.4 8.9-25.1 15.1-42.4l.1-.3.2.1c5.5 3.2 10.7 7.1 16.6 10.8 5.9 3.6 12 7.3 18.3 11.1l.2.1-.1.2c-.4 1.2-.7 2.6-1.1 3.9-9 31.2-17.1 59.2-22.4 77.9-3.4 7.6-7.6 13.1-11.4 15.7-1.9 1.3-3.6 1.9-4.8 2-.6.1-1 .1-1.3.1h-.5.5c.3 0 .7 0 1.3-.1 1.2-.2 2.9-.7 4.7-2 3.7-2.6 7.8-8.1 11.2-15.6 5.3-18.6 13.3-46.7 22.3-77.9.4-1.3.8-2.7 1.1-3.9l.1.3c-6.3-3.8-12.4-7.5-18.2-11.1-5.8-3.7-11.1-7.7-16.5-10.8l.3-.1c-6.2 17.3-11.5 32-15.2 42.4-1.9 5.1-3.3 9.2-4.4 12-.5 1.4-.9 2.4-1.2 3.2-.1.3-.2.6-.3.8-.3-.1-.3 0-.3 0z"/><path class="st7" d="M184.4 314c0 .1-1.3.6-3.4 1.8-2 1.2-4.7 3.1-7.2 5.6-2.5 2.6-4.3 5.3-5.4 7.4-1.1 2.1-1.6 3.5-1.7 3.4 0 0 .1-.4.3-1 .2-.6.6-1.5 1.1-2.6 1-2.1 2.8-5 5.4-7.6 2.5-2.6 5.3-4.5 7.4-5.6 1.1-.6 1.9-1 2.6-1.2.5-.1.9-.2.9-.2zm.4-2.9c0 .1-1 0-2.7.1-1.6 0-3.9.2-6.4.7-2.5.5-4.6 1.2-6.2 1.8l-2.5 1c0-.1.8-.6 2.4-1.3 1.5-.7 3.7-1.5 6.2-2s4.8-.6 6.5-.5c1.6-.1 2.7.1 2.7.2zm144.1 73.7s-.2-.1-.6-.2c-.4-.2-1-.4-1.7-.7-.7-.3-1.7-.6-2.8-1.2-1.1-.5-2.3-1.2-3.7-1.9-5.4-3-12.8-8.3-20.5-16.4-7.8-8-15.7-18.7-23.2-31.4s-14.5-27.3-20.5-43.2c-.7-1.8-1.3-3.6-1.9-5.4l-.1-.2.1-.1c12.3-11.9 23.9-23.2 34.3-33.3l.2-.2.2.2c5.1 5.6 9.7 11.1 13.1 16.8.8 1.4 1.6 2.8 2.2 4.3.6 1.5 1.1 3 1.1 4.5 0 .8-.3 1.5-.5 2.2-.2.7-.4 1.4-.5 2.1-.1.7-.1 1.4 0 2 .1.6.5 1.2 1 1.4h.1c6.6 6.8 11.8 12.3 15.4 16 1.8 1.9 3.2 3.3 4.1 4.3.5.5.8.9 1 1.1.2.3.3.4.3.4l-.4-.4-1.1-1.1-4.2-4.2c-3.6-3.7-8.9-9.1-15.5-15.9h.1c-.8-.2-1.2-1-1.3-1.7-.2-.7-.1-1.4 0-2.1.1-.7.3-1.4.5-2.1.2-.7.4-1.4.4-2.1 0-1.5-.5-2.9-1-4.4-.6-1.4-1.4-2.8-2.2-4.3-3.4-5.6-7.9-11.1-13.1-16.7h.3c-10.4 10.1-22 21.4-34.3 33.4l.1-.3c.6 1.8 1.2 3.6 1.9 5.3 6 15.9 13 30.5 20.4 43.1 7.4 12.7 15.3 23.4 23 31.4 7.6 8.1 15 13.4 20.4 16.5 1.4.7 2.6 1.4 3.7 1.9 1 .6 2 .9 2.8 1.3.7.3 1.3.6 1.7.7.5.5.7.6.7.6zm-56.7-45.1s-.5 0-1.4-.1c-.9-.1-2.1-.3-3.7-.7-3-.8-7.1-2.6-10.7-5.9-3.6-3.3-5.7-7.2-6.7-10.2-.5-1.5-.8-2.7-1-3.6-.1-.9-.2-1.4-.2-1.4.1 0 .3 1.9 1.5 4.8 1.1 2.9 3.2 6.7 6.7 10 3.5 3.2 7.5 5.1 10.4 5.9 3.2 1 5.2 1.1 5.1 1.2zm31.2 66.7l-.2.2c-.2.1-.4.3-.7.4-.6.4-1.5.9-2.5 1.6-.6.4-1.2.7-1.8 1.2-.7.4-1.5.8-2.3 1.2-1.6.9-3.5 2-5.6 2.9l-3.3 1.5c-1.2.5-2.4 1-3.7 1.5-2.5 1.1-5.4 1.9-8.3 2.8-6 1.7-12.7 3-19.8 3.7-7.1.6-14 .4-20.1-.1-3.1-.4-6-.7-8.7-1.3-1.3-.3-2.7-.5-3.9-.8l-3.6-.9c-2.3-.5-4.3-1.3-6-1.8-.9-.3-1.7-.5-2.5-.8-.7-.3-1.4-.6-2-.8-1.2-.5-2.1-.9-2.8-1.2-.3-.1-.5-.2-.7-.3l-.2-.1s.1 0 .3.1c.2.1.4.2.7.3.7.3 1.6.6 2.8 1.1.6.2 1.3.5 2 .8.7.3 1.6.5 2.5.8 1.8.5 3.8 1.3 6 1.8 1.1.3 2.3.6 3.6.9 1.2.3 2.6.5 3.9.7 2.7.6 5.6.9 8.7 1.2 6.1.5 12.9.7 20 .1 7.1-.7 13.7-2 19.7-3.6 2.9-.9 5.8-1.7 8.3-2.7 1.3-.5 2.5-.9 3.7-1.4 1.2-.5 2.3-1 3.3-1.5 2.2-.9 4-2 5.6-2.8.8-.4 1.6-.8 2.3-1.2.7-.4 1.3-.8 1.9-1.1 1.1-.7 2-1.2 2.6-1.5.3-.2.5-.3.7-.4 0-.4.1-.5.1-.5zm-13.7-25.6s-.1.2-.2.5c-.2.4-.4.8-.7 1.3-.3.6-.7 1.3-1.2 2.1s-1.1 1.7-1.8 2.7c-.4.5-.7 1-1.1 1.5-.4.5-.8 1-1.3 1.6-.9 1.1-1.9 2.2-3 3.3-2.2 2.2-4.8 4.6-7.8 6.7-3 2.1-6 3.9-8.8 5.3-1.4.7-2.8 1.3-4.1 1.8-1.3.5-2.5.9-3.7 1.3-1.1.4-2.2.6-3.1.9-.9.3-1.7.4-2.4.5-.6.1-1.1.2-1.5.3-.3.1-.5.1-.5.1s.2-.1.5-.2c.4-.1.9-.2 1.5-.4.6-.1 1.4-.3 2.3-.6.9-.3 1.9-.5 3.1-.9 1.1-.4 2.4-.8 3.6-1.3 1.3-.5 2.6-1.2 4.1-1.8 2.8-1.4 5.8-3.1 8.7-5.2 2.9-2.1 5.5-4.4 7.7-6.6 1.1-1.1 2.1-2.2 3-3.3.4-.5.9-1 1.3-1.5s.8-1 1.1-1.5c.7-.9 1.3-1.8 1.9-2.6.5-.8 1-1.5 1.3-2 .3-.5.6-1 .8-1.3.2-.6.3-.7.3-.7z"/><path class="st7" d="M266.6 287.1c-.1.1-1.8-1.6-3-4.3-1.3-2.6-1.6-5-1.4-5 .2 0 .7 2.2 1.9 4.8 1.2 2.6 2.6 4.4 2.5 4.5zm9.5-10.1c-.1.1-1.2-2.1-2.4-4.8-1.2-2.7-2.1-5-1.9-5.1.1-.1 1.2 2.1 2.4 4.8 1.2 2.8 2.1 5 1.9 5.1zm10.3-9.7c-.1 0-.9-2-2.2-4.4-1.3-2.4-2.6-4.2-2.4-4.3.1-.1 1.6 1.6 2.9 4.1 1.3 2.4 1.9 4.6 1.7 4.6zm-62.7 15.4c-.1 0 .5-2.8 1.5-6.2.5-1.8 1-3.4 1.4-4.5.2-1 .3-1.6.4-1.6.1 0 0 .6-.1 1.6-.3 1.1-.7 2.7-1.2 4.6-1 3.5-1.9 6.2-2 6.1zm-10.6-21.6c.1 0-.4 2-1.2 4.3-.8 2.3-1.5 4.2-1.7 4.1-.1 0 .4-2 1.2-4.3.8-2.3 1.6-4.2 1.7-4.1z"/><path d="M184 314.5c-.1-1.7-1.3-3.1-2.9-3.9-1.5-.8-3.2-.9-4.9-1.1 2.5-1 5-1.9 6.9-3.8 2.2-2.1 3.4-5 4.5-7.8 2.5-6.4 5.1-13.6 2.7-20-.4-1-.6-2.6.5-2.7.7-.1 1.2.7 1.5 1.3 1 2.2 2 4.5 3 6.7m54.7 39.1c-.4 4.1.2 8.3 1.8 12 1.5 3.5 4 6.7 7.5 8.2 3.5 1.4 8.1.6 10.2-2.7-4.2-1.5-8.6-3.1-12.1-5.9-3.6-2.7-6.4-6.9-6.4-11.4"/><path class="st10" d="M314.5 215.7l-.3.3-.9.9c-.9.8-2.1 2-3.7 3.4-3.2 3-7.9 7.3-13.6 12.5-11.5 10.6-27.4 25.1-45 41.2-1.6 1.4-3.1 2.9-4.6 4.2l-.2.2-.2-.2c-16.9-14.7-32.1-27.8-43-37.2-5.4-4.7-9.8-8.5-12.8-11.2-1.5-1.3-2.6-2.3-3.5-3-.4-.3-.7-.6-.9-.8l-.3-.3s.1.1.3.2c.2.2.5.4.9.8.8.7 2 1.7 3.5 3 3.1 2.6 7.5 6.4 12.9 11.1 10.9 9.4 26.1 22.5 43.1 37.1h-.3c1.5-1.3 3-2.8 4.6-4.2 17.6-16.1 33.5-30.6 45.1-41.1 5.8-5.2 10.5-9.5 13.7-12.4 1.6-1.4 2.9-2.6 3.7-3.4.4-.4.7-.7 1-.9.4-.2.5-.3.5-.2zm33.2 52.3s-.6.1-1.7.2c-.6 0-1.2.1-2 .2s-1.7.2-2.7.4c-1 .2-2.1.3-3.2.6-1.2.2-2.4.6-3.6.9-2.5.8-5.2 1.8-8 3.1-2.7 1.3-5.2 2.8-7.4 4.3-1.1.8-2.1 1.5-3 2.2-.9.7-1.7 1.4-2.5 2.1-.8.6-1.4 1.3-2 1.8-.6.5-1 1-1.4 1.5-.8.8-1.2 1.3-1.2 1.2 0 0 .4-.5 1.1-1.4.4-.4.8-1 1.4-1.5l1.9-1.9c.7-.7 1.5-1.4 2.5-2.2.9-.8 1.9-1.5 3-2.3 2.2-1.5 4.7-3 7.5-4.4 2.8-1.3 5.5-2.3 8.1-3.1 1.3-.3 2.5-.7 3.7-.9 1.2-.3 2.2-.4 3.2-.6 1-.2 1.9-.2 2.7-.3.8-.1 1.5-.1 2-.1 1 .1 1.6.1 1.6.2zm4 107.2s.1-.2.2-.6c.2-.5.4-1 .7-1.8.3-.8.7-1.7 1.1-2.8l.6-1.8c.1-.3.2-.6.3-1 .1-.3.2-.7.3-1.1.4-1.4.8-3 1-4.7.1-.9.3-1.7.4-2.7.1-.9.2-1.9.2-2.9.2-3.9-.1-8.2-1.1-12.7-1-4.4-2.6-8.5-4.3-12-1.7-3.6-3.6-6.6-5.2-9.1-1.7-2.5-3.1-4.4-4.1-5.7-.5-.6-.9-1.1-1.1-1.5-.3-.4-.4-.5-.4-.6l.5.5c.3.4.7.9 1.2 1.5 1.1 1.3 2.5 3.2 4.2 5.7 1.6 2.5 3.6 5.5 5.3 9.1 1.7 3.6 3.4 7.6 4.3 12.1 1 4.5 1.3 8.8 1.1 12.8-.1 1-.2 1.9-.3 2.9-.1.9-.3 1.8-.4 2.7-.2 1.7-.7 3.3-1.1 4.8-.1.4-.2.7-.3 1.1-.1.3-.2.7-.4 1l-.6 1.8c-.4 1.1-.8 2-1.2 2.8-.3.7-.6 1.3-.8 1.7 0 .3-.1.5-.1.5zm-46.7-7.4c0-.1 1 .5 2.9.3s4.6-1.4 6.5-4.3c2-2.8 3.1-6.8 4.5-11.1 1.3-4.3 2.3-9.2 3-14.4 1.4-10.4.7-19.9-.3-26.7-.5-3.4-1.1-6.1-1.6-8-.2-.9-.4-1.6-.5-2.1-.1-.5-.2-.8-.1-.8s.1.2.2.7c.2.5.4 1.2.6 2.1.5 1.9 1.1 4.6 1.7 8 1.1 6.8 1.8 16.4.5 26.8-.7 5.2-1.7 10.1-3 14.5-1.4 4.3-2.6 8.3-4.6 11.2-1 1.4-2.2 2.5-3.4 3.2-1.2.7-2.4 1-3.4 1.1-1 .1-1.7 0-2.2-.2-.6-.2-.8-.3-.8-.3zm-7.6-67.4s-.2.4-.8 1.1c-.3.4-.6.8-1 1.3s-.9 1-1.5 1.5-1.2 1.1-2 1.7c-.7.6-1.6 1.1-2.4 1.7-1.8 1.1-3.9 2.1-6.2 2.9-2.3.8-4.6 1.2-6.7 1.4-1.1.1-2.1.2-3 .1-.9 0-1.8-.1-2.6-.2s-1.5-.2-2.1-.3c-.6-.1-1.2-.2-1.6-.4-.9-.2-1.3-.4-1.3-.4 0-.1 1.9.5 5 .8.8.1 1.6.1 2.6.1.9 0 1.9-.1 2.9-.2 2.1-.2 4.3-.7 6.6-1.4 2.3-.8 4.3-1.8 6.1-2.8.9-.6 1.7-1.1 2.4-1.7.8-.5 1.4-1.1 2-1.6 2.4-2 3.5-3.6 3.6-3.6zm12.6-10.9v1.1c0 .7-.1 1.7-.4 2.9-.2 1.2-.6 2.6-1.1 4.2-.5 1.5-1.2 3.2-2.1 4.8-.9 1.6-1.9 3.1-2.9 4.4-1 1.3-2 2.3-2.9 3.2-.9.8-1.7 1.5-2.2 1.9l-.9.6c-.1-.1 1.1-1 2.8-2.7.9-.9 1.8-1.9 2.8-3.2 1-1.3 1.9-2.7 2.8-4.4.9-1.6 1.6-3.2 2.1-4.7s.9-2.9 1.2-4.1c.6-2.5.7-4 .8-4zm-20.7 61.3s0 .1-.1.2l-.5.5c-.4.5-1 1.1-1.8 1.8l-6.7 6.7c-5.8 5.7-13.7 13.5-22.5 22.2l-.1.1-.2-.1c-.5-.3-1-.6-1.5-.8-11.1-6.4-21.1-12.2-28.4-16.4-3.6-2.1-6.5-3.8-8.6-5-1-.6-1.8-1-2.3-1.4-.2-.1-.4-.3-.6-.4-.1-.1-.2-.1-.2-.1s.1 0 .2.1l.6.3c.6.3 1.4.8 2.4 1.3 2.1 1.2 5 2.8 8.7 4.9 7.3 4.2 17.4 9.9 28.5 16.3.5.3 1 .6 1.5.8h-.3c8.9-8.7 16.8-16.5 22.6-22.1 2.9-2.8 5.2-5 6.9-6.6.8-.7 1.4-1.3 1.9-1.8.2-.2.4-.3.5-.5-.1.1 0 0 0 0zm-34.7-22.3v.3c0 .2 0 .6-.2 1-.3.8-1.2 1.8-2.7 2.3-1.5.5-3.5 0-5.2-1-1.7-1.1-3.4-2.4-5.2-3.8-3.6-2.8-6.9-5.3-9.3-7.1-1.1-.9-2-1.6-2.8-2.2-.6-.5-1-.8-1-.9 0 0 .4.2 1.1.7.8.6 1.7 1.2 2.9 2.1 2.4 1.8 5.7 4.2 9.4 7 1.8 1.4 3.5 2.8 5.2 3.8 1.6 1 3.4 1.5 4.8 1.1 1.4-.4 2.3-1.3 2.7-2 .3-.8.2-1.3.3-1.3zm14.5-13.1c0 .1-1 .5-2.7 1.4-1.7.8-4 2.1-6.3 3.6-2.4 1.6-4.4 3.2-5.8 4.4-1.4 1.2-2.3 2-2.3 2s.7-.9 2.1-2.2c1.4-1.3 3.4-3 5.8-4.6 2.4-1.6 4.7-2.8 6.5-3.5 1.6-.8 2.7-1.2 2.7-1.1z"/><path d="M303.2 283.8c-5.2 13.5-6.2 27.4-4.4 41.8.4 3 1.9 7.2 3 9.9 1.2 2.8 3.1 5.3 5.9 6.6 2.5 1.1 5.8.9 7.5-1.2 1.2-1.5 1.4-3.6 1.2-5.6-.4-5-2.7-9.7-4.6-14.3-4.8-11.8-7.8-24.4-8.8-37.2m35 27c5.2 4.1 8.8 10.1 10.1 16.6.3 1.7.5 3.6 1.5 5.1.9 1.5 2.9 2.6 4.5 1.8 2-.9 2-3.7 1.6-5.8-2.1-9.6-9.8-17.7-19.3-20.5"/><path class="st10" d="M255.7 423.4c-.1.1-12.6-6.9-28-15.7-15.4-8.8-27.8-16-27.7-16.1.1-.1 12.6 6.9 28 15.7 15.3 8.7 27.7 16 27.7 16.1z"/><path class="st10" d="M275.3 419.4s-.3.3-1 .8-1.7 1.2-2.8 2c-2.3 1.7-5.6 3.9-9.2 6.4-1 .7-1.9 1.3-2.8 1.9l-.1.1-.1-.1c-3.1-1.7-5.9-3.3-7.8-4.4-.9-.5-1.6-1-2.3-1.3-.5-.3-.8-.5-.8-.5s.3.1.9.4c.6.3 1.4.7 2.3 1.2 2 1 4.7 2.5 7.9 4.2h-.3c.9-.6 1.8-1.3 2.8-1.9 3.6-2.5 6.9-4.7 9.3-6.3 1.1-.7 2.1-1.4 2.9-1.9.7-.4 1.1-.6 1.1-.6z"/><path d="M297.7 410.4c-3.5-4-9.5-5-14.7-3.8-5.2 1.2-9.8 4.1-14.4 6.8s-9.4 5.4-14.7 6c-6.2.7-12.3-1.5-18.4-2.7-6.1-1.2-13.2-1.2-17.7 3.1 0 0 19.5 6.6 42.8 3 17.2-2.8 37.1-12.4 37.1-12.4z"/><path class="st10" d="M224.8 323.4s-.6 0-1.7-.2c-.5-.1-1.2-.2-1.9-.3-.8-.1-1.6-.3-2.6-.5-1.9-.4-4.1-1.1-6.5-1.9-2.4-.9-5-2-7.6-3.3-2.6-1.4-5-2.8-7.1-4.3-2.1-1.5-3.9-2.9-5.3-4.2-.7-.6-1.4-1.2-1.9-1.8-.6-.5-1-1-1.4-1.4-.7-.8-1.1-1.2-1.1-1.3 0 0 .5.4 1.3 1.1.4.4.9.8 1.4 1.3.6.5 1.2 1.1 2 1.7 1.5 1.2 3.3 2.6 5.4 4.1 2.1 1.4 4.5 2.9 7.1 4.2 2.6 1.3 5.2 2.4 7.6 3.3 2.4.9 4.6 1.5 6.4 2 .9.3 1.8.4 2.5.6.7.2 1.4.3 1.9.4l1.5.5zm-58.8 40s-.1-.2-.2-.5c-.1-.4-.2-.9-.3-1.4-.1-.3-.2-.7-.2-1-.1-.4-.1-.8-.2-1.3-.1-.9-.3-1.9-.4-3.1 0-.6-.1-1.2-.1-1.8v-2c0-1.4.1-2.8.2-4.3.3-3 1-6.3 2-9.7 1.1-3.3 2.5-6.4 4-9 .8-1.3 1.5-2.5 2.4-3.6.4-.5.8-1.1 1.2-1.6.4-.5.8-.9 1.2-1.4.7-.9 1.5-1.6 2.1-2.3l.9-.9c.3-.3.6-.5.8-.7.5-.4.8-.7 1.1-1 .3-.2.4-.3.4-.3s-.1.1-.3.4c-.3.3-.6.6-1.1 1-.2.2-.5.5-.8.7-.3.3-.5.6-.9.9-.6.7-1.3 1.4-2 2.3-.4.4-.7.9-1.1 1.4-.4.5-.7 1-1.1 1.6-.8 1.1-1.5 2.3-2.3 3.6-1.5 2.6-2.9 5.7-3.9 9-1.1 3.3-1.7 6.6-2.1 9.6-.1 1.5-.3 2.9-.3 4.3v1.9c0 .6.1 1.2.1 1.8 0 1.1.2 2.2.3 3.1.1.5.1.9.2 1.3s.1.7.2 1c.1.6.2 1.1.3 1.5-.1.3-.1.5-.1.5zm22.7-64.7s-.4-.2-1.1-.8c-.8-.6-1.8-1.3-3-2.2-2.6-1.9-6-4.4-9.8-7.2-3.9-2.8-7.4-5.4-9.9-7.2-1.3-.9-2.3-1.7-2.9-2.2-.7-.5-1.1-.9-1-.9 0 0 .4.2 1.2.7.8.6 1.8 1.3 3 2.1 2.6 1.8 6.1 4.3 9.9 7.1 3.9 2.8 7.3 5.4 9.8 7.4 1.2 1 2.2 1.8 2.9 2.3.6.5.9.8.9.9z"/><path class="st7" d="M295.9 97.1c.4 10.3 14.1 16.5 13.9 26.8-.1 4.4-2.8 8.4-3.3 12.7-.7 5.9 2.6 11.4 3.8 17.2 2.5 12-4.4 24.6-14.8 31.1-10.3 6.5-23.3 7.8-35.4 6.1m-46.9-96.4c.4 5.5-3.2 10.4-6.9 14.6-3.7 4.1-7.7 8.4-8.5 13.9-1.4 9.7 8.1 18.7 6.1 28.3-1 5.1-5.3 9.3-6 14.5-.7 5 2 9.9 5.3 13.8 3.3 3.8 7.2 3.3 10.2 7.4 3.1 4.4 8.1 8.8 12.8 11.4 10.6 5.8 23.4-2.6 28.5-4.1"/><path class="st7" d="M297.9 103c.1-5-4.5-8.9-9.1-10.7-4.7-1.8-9.8-2.5-14-5.3-3.7-2.5-6.1-6.3-9.3-9.5-7.6-7.7-19.5-10.9-30-8.1-10.5 2.9-19.1 11.7-21.8 22.2-1.8 7.1-.6 15.5 5 20.3 6.5 5.5 16.2 4.3 24.5 2.6 8.3-1.7 17.8-3.4 24.8 1.5 4.2 3 6.6 7.8 9.2 12.2 2.6 4.4 5.8 9 10.7 10.7 4.9 1.7 11.5-1.2 11.6-6.3"/><path class="st13" d="M231.5 219.4c-.1-11.5-.1-22.6-.1-22.6s-18.2-3.1-21.9-26.9c-1.9-11.8-1.2-31.2-.2-47.1.9-14.3 10.4-31.8 24.6-30.2l44.4 11.3c4.3.5 7.6 4.2 7.5 8.5l-4.1 107.7c-.5 13.7-11.9 24.4-25.6 24.1-13.6-.1-24.5-11.2-24.6-24.8z"/><path class="st7" d="M216.8 136.5c-.1 1.6 1.3 3 2.9 3.1 1.7.1 3.1-1.1 3.2-2.7.1-1.6-1.3-3-2.9-3.1-1.8-.1-3.2 1.1-3.2 2.7zm-3.4-3.5c.4.4 2.7-1.3 6-1.3s5.7 1.7 6 1.3c.2-.2-.2-.9-1.3-1.7-1-.8-2.8-1.5-4.8-1.5s-3.8.8-4.8 1.5c-1 .8-1.3 1.5-1.1 1.7zm35.2 4.3c-.1 1.6 1.3 3 2.9 3.1 1.7.1 3.1-1.1 3.2-2.7.1-1.6-1.3-3-2.9-3.1-1.7-.1-3.1 1.1-3.2 2.7zm-3-3.6c.4.4 2.7-1.3 6-1.3s5.7 1.7 6 1.3c.2-.2-.2-.9-1.3-1.7-1-.8-2.8-1.5-4.8-1.5s-3.8.8-4.8 1.5c-.9.8-1.2 1.5-1.1 1.7zM233.7 158c0-.2-2-.5-5.3-1-.8-.1-1.6-.3-1.8-.8-.2-.6.2-1.5.6-2.5.8-2 1.6-4.2 2.5-6.4 3.5-9.1 6-16.5 5.6-16.7-.4-.1-3.5 7.1-6.9 16.2-.8 2.2-1.6 4.4-2.4 6.4-.3 1-.9 2-.4 3.3.2.6.8 1.1 1.4 1.2.5.2 1 .2 1.4.2 3.2.3 5.3.3 5.3.1z"/><path class="st14" d="M231.3 196.8s16 1.1 31.9-8.4c-.3.1-8.8 16.5-31.6 14l-.3-5.6z"/><path class="st7" d="M245 117.4c.1.9 3.4 1.4 6.9 2.9 3.6 1.4 6.3 3.3 7 2.6.3-.3 0-1.3-1-2.4-1-1.2-2.7-2.5-4.8-3.3-2.2-.8-4.3-1-5.8-.9-1.5.2-2.3.7-2.3 1.1zm-30.9 6.3c.7.6 2.8-.6 5.4-1.2 2.6-.7 5-.5 5.4-1.4.2-.4-.4-1.1-1.5-1.6s-2.9-.7-4.7-.3c-1.7.2-2.9.7-4 2.4-.8 1-1 1.8-.6 2.1z"/><path class="st7" d="M288.3 183.6c-6.5 1.3-7.1-2-12-6.6-4.9-4.5-7.4-11.5-6.6-18.1.7-5.8 3.9-11.8 1.9-17.3-2.7-7.3-12.9-9.6-15.6-16.9-1.6-4.2-.2-9.2-2-13.4-1.7-3.9-5.8-6.2-9.8-7.6-4-1.4-8.3-2.4-11.6-5.1-3.4-2.6-5.5-7.5-3.3-11.2 17.7 2.1 35.2 6.4 52 12.6 3.9 1.4 8 3.2 10.3 6.6 2.4 3.7 2.3 8.4 2.1 12.7-1 21.4-2 42.7-3 64.1m12.5-48.3c.8-7.8 7.1-14.8 14.9-16.2 7.7-1.4 16.2 2.8 19.7 9.9 3.3 6.7 2.2 14.9-.9 21.7-3.7 8.1-11.2 15.5-20.1 15.1-8.4-.4-15.1-7.7-17.5-15.7-2.4-8-1.4-16.6-.4-24.9"/><path class="st8" d="M307.9 167.6s.6-.4 1.2-1.4c.7-1 1.4-2.6 1.8-4.8.3-2.1.3-4.7-.2-7.5s-1.4-5.7-2.1-8.8c-.7-3.1-1-6.1-.5-8.8.5-2.6 1.7-4.9 2.3-7 .6-2.1.5-3.9.1-5.1-.4-1.2-.9-1.7-.9-1.6-.1 0 .3.6.5 1.7s.2 2.8-.5 4.8c-.6 2-1.9 4.2-2.5 7-.6 2.8-.3 6 .4 9.2.7 3.2 1.7 6.1 2.2 8.8.5 2.7.7 5.2.4 7.2-.4 4.3-2.4 6.2-2.2 6.3z"/><path class="st8" d="M308.2 139.1c-.1.1 1 1.7 3.6 3.6 2.6 1.8 6.8 3.7 11.7 3.8 4.9.1 9.2-1.7 11.8-3.4 2.7-1.8 3.9-3.4 3.8-3.4-.1-.1-1.5 1.3-4.2 2.8-2.6 1.5-6.7 3.1-11.4 3-4.7-.1-8.7-1.8-11.3-3.4-2.5-1.7-3.8-3.1-4-3zm1.2 3.7c-.1 0 .5 1.6 2 3.7s4.1 4.8 7.6 6.9c3.5 2.1 7.1 3.1 9.7 3.5 2.6.3 4.2.1 4.2 0 0-.2-1.6-.2-4.1-.8-2.5-.5-5.9-1.6-9.2-3.6-3.3-2-5.9-4.5-7.5-6.5-1.7-1.9-2.5-3.3-2.7-3.2zm-6 32.8l.3-.3c.1-.2.4-.5.7-1 .5-.9 1.2-2.3 1.6-4.2.4-1.9.4-4.4-.4-7-.7-2.7-2.6-5.5-5.5-7.4-2.8-2-6.5-3.4-8.8-6.5-1.2-1.5-1.7-3.6-1.3-5.6.3-2 1.3-4 2.1-6.2 1.8-4.3 1.8-9.6-.3-14.2-1.1-2.3-2.7-4.4-4.8-6-2.1-1.6-4.7-2.4-7.3-3-2.6-.6-5.1-.9-7.5-1.6-2.4-.7-4.7-1.8-6.3-3.4-1.7-1.7-2.4-3.9-2.7-6.2-.3-2.3-.5-4.7-1.1-6.9-1.2-4.5-3.4-8.4-6.4-11.3-3-2.9-6.6-4.5-10.1-5s-6.7.1-9.2 1.4c-2.5 1.3-4.2 3-5.3 4.6-1.1 1.6-1.6 3.1-1.9 4-.2 1-.2 1.5-.2 1.5.2.1.2-2.2 2.4-5.3 1.1-1.5 2.8-3.2 5.2-4.3 2.4-1.2 5.5-1.7 8.8-1.2 3.3.5 6.8 2.2 9.6 4.9s5 6.6 6.1 10.9c.6 2.2.7 4.4 1.1 6.8.3 2.4 1.1 5 3 6.8 1.8 1.9 4.3 3 6.7 3.7 2.5.8 5.1 1.1 7.6 1.7 2.5.6 5 1.4 6.9 2.8 2 1.4 3.5 3.4 4.5 5.6 2 4.4 2.1 9.3.3 13.4-.8 2.1-1.7 4.1-2.1 6.4-.4 2.2.2 4.6 1.5 6.2 2.6 3.4 6.4 4.7 9.1 6.6 2.8 1.8 4.6 4.5 5.4 7 .8 2.5.8 4.9.5 6.8-.7 3.8-2.3 5.4-2.2 5.5z"/><path class="st8" d="M301.8 109.2s.2-.3.3-1.1c.1-.7 0-1.9-.8-3.2-.7-1.2-2.1-2.5-4-3.3-1.9-.7-4.4-.7-6.8-.2-2.5.5-5.1 1.5-7.9 2-2.8.5-6.1.6-8.6-1.4-2.5-1.9-3.8-5.3-5.1-8.6-1.3-3.4-3.1-6.8-5.5-9.8-4.8-6-11.4-10.2-18-11.6-3.3-.7-6.6-.6-9.5.2-2.9.9-5.3 2.5-7 4.5-1.7 2-2.5 4.3-2.6 6.3-.2 2 .2 3.8.8 5.1.5 1.3 1.3 2.2 1.8 2.7s.9.7.9.7c.1-.1-1.3-1-2.3-3.6-.5-1.3-.8-3-.6-4.9.2-1.9 1-4.1 2.6-5.9 1.6-1.8 3.9-3.3 6.6-4.1 2.7-.8 5.9-.8 9-.1 6.3 1.5 12.7 5.5 17.4 11.4 2.4 2.9 4.1 6.2 5.4 9.5 1.3 3.3 2.6 6.8 5.5 9 1.4 1.1 3.1 1.6 4.7 1.8 1.6.2 3.2 0 4.7-.3 2.9-.6 5.5-1.6 7.9-2.1 2.4-.5 4.7-.6 6.5 0 1.8.6 3.1 1.8 3.8 3 .8 1.1.9 2.2.9 2.9 0 .7-.1 1.1-.1 1.1zm7.5 61.6s-.1.4-.5 1.1c-.4.7-1 1.7-1.8 2.9-1.7 2.3-4.6 5.1-8.6 7-4 1.9-8.1 2.3-10.9 2.2-1.4-.1-2.6-.2-3.4-.4l-1.2-.3c0-.1 1.7.3 4.6.4 2.8 0 6.8-.5 10.7-2.3 3.9-1.8 6.8-4.6 8.6-6.8 1.7-2.3 2.4-3.9 2.5-3.8z"/><path class="st13" d="M234.5 180.5l10.6 15.4 2 8.9s.4-2.8.9-5.5c.6-2.7 0-10.8 0-10.8l-7.8-11.6s-4.5-6.4-.7-10.2l7.6 7.5s-6.4-9-2-12.3l6.2 5.3s-1.8-2.1.6-3.8l16.1 15.5 2 25.9-.9 27.4 16 21L262 276s-21.7-35.4-23-40.8c-1.3-5.4-.1-35.1-.1-35.1s-6.6-9.5-6.5-13.7c.2-4.2 2.1-5.9 2.1-5.9z"/><path class="st14" d="M252.8 259.8l-.2-.2c-.1-.2-.3-.4-.5-.7-.4-.6-1-1.6-1.8-2.8-1.6-2.5-3.9-6.1-6.7-10.9-1.4-2.4-2.9-5.1-4.2-8.2-.7-1.6-.9-3.4-1-5.2-.1-1.8-.2-3.7-.2-5.6-.1-7.8.1-16.6.4-26.2l.1.3c-1.9-2.8-3.8-5.8-5.3-9.2-.4-.8-.7-1.7-1-2.6-.1-.5-.2-.9-.3-1.4l-.1-.8v-.7c.1-1 .2-1.9.6-2.9.3-1 .8-1.8 1.5-2.7l.4-.4.3.5c3.4 4.9 7 10.1 10.7 15.4l.1.1v.1c.6 2.8 1.3 5.8 2.1 8.9h-1c.2-1.3.4-2.6.7-3.9.1-.7.2-1.3.3-2 .1-.6.1-1.3.2-2 .1-2.7-.1-5.5-.2-8.3l.1.3c-1.5-2.3-3.1-4.6-4.7-7l-2.4-3.6c-.4-.6-.8-1.2-1.2-1.9-.4-.7-.7-1.3-1-2-.5-1.3-.9-2.7-.8-4.1 0-1.4.6-2.9 1.7-3.9l.4-.4.4.4c2.6 2.5 5.1 5 7.6 7.5l-.8.7c-1.3-2-2.4-4-3.2-6.2-.3-1.1-.6-2.3-.5-3.5.1-1.2.7-2.5 1.7-3.2l.3-.2.3.3c2.2 2 4.3 3.9 6.4 5.8l-.7.7c-.5-.8-.8-1.6-.7-2.5 0-.9.6-1.8 1.3-2.3l.3-.2.3.3c5.6 5.3 10.9 10.4 16.1 15.3l.1.1v.2c.7 9.3 1.3 18 1.9 25.9-.4 10.5-.7 19.7-1 27.3l-.1-.2c4.8 6.5 8.6 11.7 11.3 15.2 1.3 1.8 2.3 3.1 3 4.1.3.5.6.8.7 1.1.2.2.2.4.2.4l-.3-.3c-.2-.2-.5-.6-.8-1-.7-.9-1.7-2.2-3.1-4-2.7-3.5-6.6-8.6-11.5-15l-.1-.1v-.1c.2-7.7.5-16.8.7-27.4-.6-7.9-1.3-16.6-2-25.9l.1.3c-5.1-4.8-10.5-9.9-16.1-15.2h.6c-.5.4-.9.9-.9 1.5s.2 1.3.5 1.9l2 3.1-2.7-2.4c-2.1-1.9-4.2-3.8-6.4-5.8h.6c-.8.6-1.2 1.5-1.3 2.5-.1 1 .1 2.1.4 3.1.7 2.1 1.8 4.1 3 5.9l-.8.7c-2.5-2.5-5-5-7.6-7.5h.7c-.9.8-1.3 2-1.4 3.2 0 1.2.2 2.5.7 3.7.3.7.6 1.3.9 1.9.3.6.8 1.2 1.2 1.8l2.4 3.6c1.6 2.4 3.2 4.7 4.7 7l.1.1v.1c.2 2.8.3 5.6.2 8.4 0 .7-.1 1.4-.2 2.1-.1.7-.2 1.3-.3 2-.2 1.3-.4 2.6-.7 3.9l-.4 2.5-.6-2.5c-.7-3.1-1.4-6.1-2-8.9l.1.2c-3.7-5.4-7.2-10.5-10.6-15.5l.7.1c-.5.6-1 1.4-1.3 2.3-.3.9-.5 1.8-.5 2.7-.2 1.8.5 3.5 1.2 5.1 1.5 3.3 3.3 6.3 5.2 9.1l.1.1v.1c-.4 9.6-.6 18.4-.6 26.2 0 1.9.1 3.8.1 5.6.1 1.8.2 3.5.9 5 1.2 3.1 2.8 5.7 4.1 8.2 2.7 4.8 5 8.5 6.5 11 .8 1.2 1.3 2.2 1.7 2.9.2.3.3.6.4.7.4-.1.5 0 .5 0z"/><path class="st14" d="M257.5 200.9c-.1 0-.4-1.7-.6-4.4-.2-2.8-.5-6.6-.7-10.8 0-.4 0-.8-.1-1.2l.1.3c-2.6-2.9-5-5.6-6.6-7.5-1.6-1.9-2.6-3.2-2.5-3.3.1-.1 1.2 1 3 2.8 1.8 1.8 4.2 4.4 6.8 7.3l.1.1v.2c0 .4 0 .8.1 1.2.2 4.2.4 8 .4 10.8.2 2.7.1 4.5 0 4.5zm6.1-8.2c-.1 0-.3-1.5-.6-4.1-.2-2.5-.5-6-.7-10l.2.3-.9-.9c-3-3-5.7-5.7-7.6-7.7-1.9-2-3.1-3.3-3-3.4.1-.1 1.4 1 3.5 2.9s4.8 4.5 7.9 7.5l.9.9.1.1v.2c.2 3.9.3 7.5.4 10 0 2.7-.1 4.2-.2 4.2z"/><path class="st13" d="M214.1 217.6s-1.7-11.6-3.3-15.7c-1.6-4.1-6-9.3-6-9.3s2.4-2.7 6.3-.4c5 3 4.8 9.7 4.8 9.7l-1.8 15.7z"/><path class="st13" d="M215.4 202.9s-2.7-19.2-2.6-20.5c.2-1.3 7.3-18.1 7.3-18.1s4.2-.4 3.7 3.7c-.5 4-2 8.4-2 8.4l11.3-13.2s4.2.9 2.6 5.1c0 0 3.8-.5 2.7 5.8l-5.1 9.7.6 10.1 8.3-10.9s4 2.5 2 6.5-6.2 13.3-6.2 13.3l1.2 14.4s2.1 8 0 12.2c-2.1 4.2-4.1 8-4.1 8l-3.8 35.1-24.8-15.6 7.2-35.2 1.7-18.8z"/><path class="st14" d="M231.3 272.7v-.6c0-.4.1-1 .1-1.8.2-1.6.4-3.9.7-6.9.6-6 1.5-14.8 2.6-25.7v-.2c.7-1.4 1.5-2.9 2.2-4.4.4-.8.8-1.5 1.2-2.3.4-.8.8-1.6 1.1-2.4.5-1.6.6-3.5.4-5.3-.1-1.8-.4-3.8-.9-5.6-.4-4.6-.8-9.4-1.3-14.4v-.2c1.5-3.2 3-6.4 4.5-9.8.4-.8.8-1.7 1.2-2.5.4-.9.8-1.7.9-2.5.3-1.7-.8-3.4-2.3-4.4l.7-.1c-2.6 3.5-5.4 7.2-8.3 10.9l-.8 1.1-.1-1.4c-.2-3.2-.4-6.6-.6-10.1v-.1l.1-.1c1.6-3.1 3.3-6.4 5.1-9.7l-.1.2c.1-1 .3-2 .1-3-.1-1-.6-1.9-1.5-2.1-.2-.1-.5-.1-.7-.1l-.9.1.3-.8c.4-1 .5-2 .1-2.8-.4-.8-1.3-1.4-2.2-1.6l.5-.2c-3.9 4.5-7.6 8.9-11.3 13.2l-1.6 1.9.8-2.4c.8-2.4 1.4-4.8 1.8-7.2.1-.6.2-1.2.2-1.7s-.1-1.1-.4-1.4c-.5-.8-1.7-1.1-2.8-1.1l.4-.3c-1.4 3.4-2.8 6.7-4.2 9.9-.7 1.6-1.3 3.2-2 4.8l-.9 2.4c-.1.2-.1.4-.2.6l-.1.2v.3c0 .4 0 .8.1 1.2.7 6.6 1.6 13 2.4 18.9-.6 6.9-1.2 13.3-1.7 19-2.3 11-4.2 19.8-5.5 25.8-.7 3-1.2 5.3-1.5 6.9-.2.8-.3 1.4-.4 1.8-.1.4-.2.6-.2.6s0-.2.1-.6c.1-.4.2-1 .3-1.8.3-1.6.8-3.9 1.3-7 1.2-6.1 3-14.9 5.1-25.9.5-5.7 1-12.1 1.6-19v.1c-.8-5.9-1.8-12.2-2.5-18.9 0-.4-.1-.8-.1-1.3v-.4l.1-.4c.1-.2.1-.4.2-.6l.9-2.4c.6-1.6 1.3-3.2 2-4.8 1.4-3.2 2.7-6.6 4.1-10l.1-.3h.3c.7 0 1.3 0 2 .3.6.2 1.3.6 1.7 1.2.4.6.6 1.3.6 2s-.1 1.3-.2 1.9c-.4 2.5-1.1 4.9-1.8 7.3l-.9-.5c3.7-4.3 7.5-8.7 11.3-13.2l.2-.2.3.1c.6.2 1.2.4 1.7.8.5.3 1 .8 1.3 1.4.6 1.2.4 2.6 0 3.7l-.6-.7c.4 0 .8 0 1.2.1.7.2 1.3.6 1.6 1.2.4.6.6 1.2.7 1.8.2 1.2.1 2.3-.1 3.4v.2c-1.7 3.3-3.5 6.6-5.1 9.7l.1-.3c.2 3.5.4 6.9.6 10.1l-.9-.3c2.9-3.8 5.7-7.5 8.3-10.9l.3-.4.4.2c.9.6 1.6 1.4 2.1 2.3.5.9.8 2 .6 3.1-.1 1.1-.7 2-1 2.8-.4.8-.8 1.7-1.2 2.5-1.6 3.4-3.1 6.6-4.6 9.8v-.2c.4 5 .8 9.9 1.2 14.4v-.1c.5 2 .8 3.9.9 5.8.1 1.9.1 3.8-.5 5.6-.3.9-.8 1.7-1.1 2.5-.4.8-.8 1.5-1.2 2.3-.8 1.5-1.5 3-2.3 4.4v-.1c-1.3 10.9-2.3 19.7-3 25.7-.4 3-.7 5.3-.8 6.9-.1.8-.2 1.4-.2 1.8 0 .1-.1.3-.1.3z"/><path class="st14" d="M220.5 196.9c-.3 0-1.2-4.7-2-10.7-.2-1.7-.4-3.4-.6-4.8v-.2l.1-.1c2.1-2.9 3.6-4.8 3.8-4.7.2.1-1 2.2-3 5.2l.1-.3c.2 1.4.5 3.1.7 4.8.8 6 1.2 10.8.9 10.8zm6.4-4.4c-.2 0-.9-4-1.6-9.7v-.2l.1-.2c.7-1 1.4-2.1 2.2-3.2 4.3-6.2 7.9-11.1 8.1-11 .2.2-3 5.3-7.3 11.5-.8 1.1-1.5 2.2-2.2 3.2l.1-.3c.6 5.8.8 9.9.6 9.9z"/></g><g id="Plant"><path class="st9" d="M98.8 307.8c-11.7-17.9-11.3-44.1 2.7-60.3 4.3-5 10.4-9.4 17-8.8 6.8.6 12.2 6.4 14.3 12.9 2.1 6.5 1.3 13.5.1 20.2-1.7 9.4-4.5 19-11 25.9-6.5 7-14.8 14.7-23.1 10.1m5.2 85.7c-4.4-10.3-1.2-23.3 7.5-30.4 2.7-2.2 6.2-3.9 9.6-3 3.4.9 5.7 4.4 6.2 7.9s-.5 7.1-1.8 10.4c-1.7 4.7-4.1 9.4-8 12.4-4.1 2.9-9.6 5.8-13.5 2.7m-28.3-6.2c3.2-15.9-5.1-33.4-19.5-40.9-4.5-2.3-10-3.7-14.5-1.4-4.6 2.3-6.8 7.9-6.5 13.1.4 5.1 2.8 9.9 5.6 14.2 3.8 6.1 8.5 12.1 15 15.1 6.6 3.1 15.3 5.5 19.9-.1m2.1-42.9c5.6-18.1-3.9-40-19.7-50.4-4.9-3.2-11.1-5.5-16.6-3.4-5.6 2.1-8.9 8.4-9 14.4-.2 6 2.1 11.8 4.8 17.2 3.7 7.6 8.5 15 15.7 19.4 7.1 4.3 18.8 8.7 24.8 2.8"/><path class="st7" d="M89 432.8s-.1-.3-.2-.9c-.1-.7-.2-1.5-.4-2.5l-.3-1.8c-.1-.7-.3-1.4-.4-2.2-.3-1.5-.6-3.3-1.1-5.2-.2-1-.5-2-.7-3-.3-1-.6-2.1-.9-3.2-.6-2.2-1.5-4.6-2.3-7-1.9-4.9-4.2-10.2-7-15.5-2.9-5.3-6-10.1-9-14.4-1.6-2.1-3-4.1-4.6-5.8-.7-.9-1.5-1.7-2.2-2.6-.7-.8-1.4-1.5-2.1-2.3-1.3-1.5-2.6-2.7-3.7-3.8-.6-.5-1.1-1.1-1.6-1.5-.5-.4-1-.8-1.4-1.2-.8-.7-1.4-1.3-1.9-1.7l-.6-.6s.3.2.7.5c.5.4 1.2.9 2 1.6.4.4.9.8 1.4 1.2.5.5 1 1 1.6 1.5 1.2 1.1 2.5 2.3 3.8 3.7.7.7 1.4 1.5 2.2 2.3.7.8 1.4 1.7 2.2 2.6 1.6 1.7 3 3.8 4.7 5.8 3.1 4.2 6.3 9.1 9.2 14.4 2.8 5.4 5.1 10.7 7 15.6.8 2.5 1.7 4.8 2.3 7.1l.9 3.3c.2 1.1.5 2.1.7 3 .5 1.9.7 3.7 1 5.3.1.8.2 1.5.4 2.2.1.7.1 1.3.2 1.8.1 1 .2 1.9.2 2.5-.1.5 0 .8-.1.8z"/><path class="st7" d="M88.6 436.1v-.4c0-.3 0-.6.1-1 .1-1 .2-2.3.4-4 .1-.9.2-1.8.3-2.9.1-1.1.1-2.2.2-3.5.1-2.5.3-5.3.2-8.4V411c0-1.7-.2-3.5-.3-5.3-.1-3.7-.6-7.6-1.1-11.7-1.1-8.2-2.9-17.1-5.6-26.3-2.8-9.1-6.2-17.6-9.7-25.1-1.9-3.7-3.6-7.2-5.5-10.4-.9-1.6-1.8-3.2-2.7-4.6-.9-1.4-1.8-2.8-2.7-4.1-1.6-2.7-3.4-4.9-4.8-6.9-.7-1-1.4-2-2-2.8-.7-.8-1.3-1.6-1.8-2.3-1.1-1.3-1.9-2.4-2.5-3.2-.3-.3-.5-.6-.6-.8-.1-.2-.2-.3-.2-.3l.3.3c.2.2.4.5.7.8.6.8 1.5 1.8 2.6 3.1.6.7 1.2 1.4 1.9 2.2.7.8 1.3 1.8 2.1 2.8 1.5 2 3.2 4.2 4.9 6.9.9 1.3 1.8 2.7 2.7 4.1.9 1.4 1.8 3 2.7 4.6 1.9 3.2 3.7 6.7 5.6 10.4 3.6 7.5 7 16 9.8 25.2 2.7 9.2 4.4 18.2 5.5 26.4.4 4.1.9 8.1 1 11.8.1 1.8.2 3.6.2 5.3v4.9c.1 3.1-.2 6-.4 8.5-.1 1.2-.1 2.4-.2 3.5s-.2 2-.4 2.9c-.2 1.7-.4 3-.5 4-.1.4-.1.8-.2 1 .1 0 0 .2 0 .2z"/><path class="st7" d="M119.1 260.3s0 .1-.1.3c-.1.3-.3.6-.5.9-.5.9-1.2 2.1-2 3.6-.4.8-.9 1.6-1.4 2.6l-1.6 3.2c-.6 1.1-1.2 2.3-1.8 3.6-.6 1.3-1.2 2.7-1.8 4.1-.6 1.5-1.3 3-2 4.6-.6 1.6-1.3 3.3-1.9 5-.3.9-.7 1.8-1 2.7-.3.9-.6 1.8-.9 2.8-.6 1.9-1.3 3.8-2 5.8-2.5 8-4.8 17-6.8 26.5-1.9 9.5-3.3 18.7-4.3 27-.9 8.4-1.5 15.9-1.7 22.3-.2 3.2-.2 6.1-.2 8.6s-.1 4.7 0 6.5c0 1.7 0 3.1.1 4.1v1.5s0-.1-.1-.4c0-.3 0-.6-.1-1.1 0-1-.1-2.4-.2-4.1-.1-1.8-.1-4-.1-6.5s0-5.4.1-8.6c.1-6.4.7-13.9 1.5-22.3 1-8.4 2.3-17.5 4.2-27.1 2-9.5 4.4-18.5 6.9-26.5.7-2 1.3-3.9 2-5.8.3-.9.6-1.9 1-2.8.4-.9.7-1.8 1-2.7.7-1.7 1.4-3.4 2-5 .7-1.6 1.4-3.1 2-4.6.7-1.4 1.3-2.8 1.9-4.1.7-1.3 1.3-2.5 1.9-3.6.6-1.1 1.1-2.2 1.6-3.1.5-1 1.1-1.8 1.5-2.6.9-1.5 1.6-2.7 2.1-3.5.2-.4.4-.7.6-.9 0-.3.1-.4.1-.4zm-4 109.9s-.4.8-1.2 2.2c-.9 1.4-2 3.4-3.4 5.9-1.4 2.5-2.9 5.6-4.4 9.1-1.5 3.5-3 7.4-4.3 11.6-1.3 4.2-2.3 8.3-3 12-.7 3.7-1.2 7.1-1.5 10-.3 2.9-.5 5.2-.5 6.8-.1 1.6-.2 2.5-.2 2.5-.1 0-.1-.9-.1-2.5s.1-4 .3-6.9c.2-2.9.6-6.3 1.3-10.1.7-3.8 1.7-7.9 3-12.1 1.3-4.2 2.8-8.2 4.4-11.7 1.6-3.5 3.2-6.6 4.6-9.1 1.4-2.5 2.7-4.5 3.6-5.8.8-1.2 1.4-1.9 1.4-1.9z"/><path class="st8" d="M66 424.7h51.5l-6.3 52.6H72.4z"/><path class="st7" d="M67.9 471.6l4.4 5.7h38.9l4.5-5.5z"/><path d="M115.5 440.2c0 .2-10.7.4-23.8.4-13.2 0-23.8-.2-23.8-.4s10.7-.4 23.8-.4c13.1 0 23.8.2 23.8.4zm0 3.5c0 .2-10.7.4-23.8.4-13.2 0-23.8-.2-23.8-.4s10.7-.4 23.8-.4c13.1 0 23.8.2 23.8.4zm-.7 3.4c0 .2-10.3.4-23 .4s-23-.2-23-.4 10.3-.4 23-.4 23 .2 23 .4z" fill="#fafafa"/><path class="st7" d="M73.9 311.5v.5c0 .4-.1.9-.1 1.4-.1 1.3-.3 3.1-.5 5.2-.5 4.4-1.2 10.5-1.9 17.2 0 .3-.1.5-.1.8v.2h-.2c-6.6.1-12.6.2-16.9.2h-7s.2 0 .5-.1c.4 0 .8 0 1.4-.1 1.3 0 3-.1 5.1-.2 4.3-.1 10.2-.2 16.8-.3l-.3.2c0-.2.1-.5.1-.8.8-6.7 1.5-12.8 2.1-17.2.3-2.1.5-3.9.7-5.2.1-.6.2-1 .2-1.4 0-.2.1-.4.1-.4zm-11.7-15.7v7.4c-.1 4.6-.2 10.9-.4 17.9v1.1h-.3c-6.8-.5-12.9-.5-17.3-.4-2.2.1-4 .2-5.2.2-.6 0-1 0-1.4.1h-.5s.2 0 .5-.1c.3 0 .8-.1 1.4-.2 1.2-.1 3-.3 5.2-.4 4.4-.2 10.6-.3 17.4.2l-.3.3v-.8c.2-7 .4-13.3.5-17.9.1-2.2.2-4.1.2-5.4 0-.6.1-1.1.1-1.5 0-.3.1-.5.1-.5z"/><path class="st7" d="M48.5 290.4l.3 1.5c.2 1.1.5 2.5.8 4.1.7 3.5 1.7 8.3 3.2 13.6l.2.6-.5-.3-.6-.3c-5.1-2.4-10.1-3.6-13.7-4-1.8-.2-3.3-.3-4.3-.3s-1.6 0-1.6-.1c0 0 .1 0 .4-.1.3 0 .7-.1 1.2-.1 1 0 2.5 0 4.4.2 3.7.3 8.8 1.4 13.9 3.9l.6.3-.4.3c-1.5-5.3-2.5-10.1-3-13.6-.3-1.8-.5-3.2-.6-4.2-.3-.9-.3-1.5-.3-1.5zm72.6 95.8c0 .1-1.5-.1-3.9-.2s-5.7-.1-9.4.3c-.7.1-1.5.2-2.2.3h-.2v-.2c-.6-3.1-1-5.9-1.3-7.8-.3-2-.5-3.2-.4-3.2.1 0 .3 1.2.7 3.1.4 2 .9 4.7 1.5 7.8l-.3-.2c.7-.1 1.4-.2 2.2-.3 3.7-.4 7-.3 9.4-.2 1.2.1 2.2.2 2.8.3.8.2 1.1.3 1.1.3zm4.9-9.6c0 .1-1.4-.3-3.8-.5-2.3-.3-5.6-.5-9.1-.1-.6.1-1.1.1-1.6.2h-.3v-.3c-.3-3.2-.6-6-.8-8.1-.2-2-.2-3.3-.2-3.3.1 0 .3 1.2.5 3.2.3 2 .6 4.9.9 8.1l-.3-.2c.5-.1 1.1-.1 1.6-.2 3.6-.4 6.9-.1 9.2.2 1.2.2 2.1.4 2.7.6.9.2 1.2.3 1.2.4zm3.5-91.5s-.2.1-.5.3c-.4.2-.9.4-1.5.7-1.4.6-3.3 1.4-5.6 2.4-4.8 2-11.3 4.7-18.4 7.6-.3.1-.7.3-1 .4l-.2.1-.1-.2c-3-6.9-5.8-13-7.8-17.6-.9-2.2-1.7-4-2.3-5.3-.2-.6-.4-1.1-.6-1.5-.1-.3-.2-.5-.2-.5s.1.2.3.5l.7 1.4c.6 1.3 1.4 3.1 2.4 5.3 2 4.5 4.8 10.7 7.9 17.5l-.3-.1c.3-.1.7-.3 1-.4 7.2-2.9 13.7-5.6 18.5-7.5 2.3-.9 4.2-1.7 5.6-2.2.6-.2 1.1-.4 1.5-.6.4-.3.6-.3.6-.3zm4.5-22.2s-.1.1-.5.3c-.4.2-.8.5-1.3.9-1.2.8-2.9 1.8-5 3.1-4.3 2.6-10.2 6.2-16.8 10.2l-.3.2-.1-.3c-.1-.3-.2-.5-.3-.8-2.7-7.4-5.2-14-7-18.9-.9-2.4-1.6-4.3-2.1-5.8-.2-.6-.4-1.2-.5-1.6-.1-.4-.2-.6-.2-.6s.1.2.3.5c.2.4.4.9.6 1.5.6 1.4 1.3 3.3 2.2 5.7 1.9 4.9 4.4 11.5 7.2 18.9.1.3.2.6.3.8l-.4-.1c6.6-3.9 12.5-7.5 16.8-10.1 2.1-1.2 3.8-2.2 5.1-3 .6-.3 1-.6 1.4-.8.4 0 .6-.1.6-.1z"/><path class="st7" d="M132.5 251s-.4.3-1.1.7c-.7.4-1.8 1-3 1.8-2.5 1.6-6 4-9.3 7.3l-.6.6.2-.9c.2-.9.4-1.9.6-2.9.9-5.3.2-10.3-.7-13.7-.5-1.7-1-3.1-1.3-4-.4-.9-.6-1.4-.5-1.4 0 0 .3.5.7 1.4.4.9 1 2.2 1.5 4 1 3.4 1.8 8.5.9 13.9-.2 1-.4 2-.6 2.9l-.4-.2c3.4-3.3 6.9-5.7 9.5-7.2 1.3-.8 2.4-1.3 3.1-1.6.6-.5 1-.7 1-.7zM73.8 366.4s-.1.5-.2 1.3c-.2.8-.4 2.1-.7 3.6-.6 3.1-1.2 7.4-1.4 12.2v.2h-.2c-.4 0-.8 0-1.2.1-5.1.3-9.7.6-13.1.7-1.6.1-2.9.1-4 .2h-1.5s.5-.1 1.4-.2c1-.1 2.4-.2 4-.3 3.3-.2 8-.6 13.1-.9.4 0 .8 0 1.2-.1l-.2.2c.2-4.9.9-9.2 1.6-12.2.3-1.5.6-2.8.9-3.6.1-.8.3-1.2.3-1.2zm-10.1-14.5s0 .5-.1 1.3c-.1 1-.2 2.2-.4 3.7-.4 3.1-.9 7.4-1.6 12.2v.2h-.2c-.5 0-1.1.1-1.7.1-5.2.4-9.9.9-13.3 1.3-1.6.2-3 .4-4 .5-1 .1-1.5.2-1.5.2s.5-.2 1.5-.4c.9-.2 2.3-.4 4-.7 3.4-.5 8.1-1.1 13.4-1.5.6 0 1.1-.1 1.7-.1l-.2.2c.7-4.8 1.3-9.1 1.7-12.2.2-1.5.4-2.7.6-3.6 0-.8.1-1.2.1-1.2zm-11.9-6.3c.1 0-.2 1.4-.6 3.7-.4 2.3-.8 5.5-.8 9.1v.3h-.3c-.3 0-.6-.1-.9-.1-3.8-.5-7.2-.6-9.7-.6h-4.1s.4-.1 1.1-.2c.7-.1 1.7-.2 3-.2 2.5-.1 6 0 9.8.4.3 0 .6.1.9.1l-.3.3c.1-3.6.5-6.9 1-9.2.2-1.1.5-2.1.6-2.7.2-.5.3-.9.3-.9zm67.8 14.5c.1.1-1 2.4-2.3 5.2-1.3 2.9-2.3 5.2-2.5 5.1-.1 0 .7-2.5 2-5.4 1.3-2.7 2.7-4.9 2.8-4.9z"/><path class="st7" d="M126 367c0 .2-2.7.2-5.8 1.2-3.2 1-5.4 2.5-5.5 2.3-.1-.1 2.1-1.8 5.3-2.8 3.3-1 6.1-.8 6-.7z"/></g><g id="Clock"><path class="st8" d="M456.3 477.6h-67.7v-50.8c0-18.7 15.1-33.8 33.8-33.8 18.7 0 33.8 15.1 33.8 33.8v50.8z"/><circle transform="rotate(-76.774 423.178 426.533)" class="st4" cx="423.2" cy="426.5" r="20.1"/><path class="st7" d="M430.4 423.8c.1.2-2.8 2.6-6.9 5.8l-.7.5v-4.6c0-3.5 0-6.7.1-9s.2-3.7.3-3.7c.1 0 .2 1.4.3 3.7.1 2.3.1 5.5.1 9v3.7l-.7-.3c4.2-3.1 7.3-5.2 7.5-5.1zm10.8 42.8s0-.3-.1-.8c0-.6 0-1.4-.1-2.3 0-2.1-.1-4.9-.2-8.4l.3.3c-8.5.1-21.5.2-36 .2l.4-.4v11.4l-.4-.4c10.3 0 19.2.1 25.6.2 3.1.1 5.7.1 7.6.1.8 0 1.5 0 2.1.1h.8s-.2 0-.6.1c-.5 0-1.2 0-2 .1-1.9 0-4.4.1-7.5.1-6.4.1-15.5.2-25.9.2h-.4v-11.8l.4-.4c14.5 0 27.4.1 36 .2h.3v.3c-.1 3.6-.1 6.4-.2 8.5 0 .9-.1 1.6-.1 2.2v.5z"/></g></svg>